<svg xmlns="http://www.w3.org/2000/svg" viewBox="0 0 32 32" fill="none">
  <!-- Open book/notebook shape -->
  <path d="M4 6c0-1.1.9-2 2-2h8v24H6c-1.1 0-2-.9-2-2V6z" fill="#546e7a"/>
  <path d="M18 4h8c1.1 0 2 .9 2 2v20c0 1.1-.9 2-2 2h-8V4z" fill="#546e7a"/>
  <!-- Center spine -->
  <rect x="15" y="4" width="2" height="24" fill="#455a64"/>
  <!-- Text lines on left page -->
  <rect x="6" y="9" width="7" height="1.5" rx="0.75" fill="#ffffff"/>
  <rect x="6" y="13" width="6" height="1.5" rx="0.75" fill="#ffffff"/>
  <rect x="6" y="17" width="7" height="1.5" rx="0.75" fill="#ffffff"/>
  <rect x="6" y="21" width="5" height="1.5" rx="0.75" fill="#ffffff"/>
  <!-- Text lines on right page -->
  <rect x="19" y="9" width="7" height="1.5" rx="0.75" fill="#ffffff"/>
  <rect x="19" y="13" width="6" height="1.5" rx="0.75" fill="#ffffff"/>
  <rect x="19" y="17" width="7" height="1.5" rx="0.75" fill="#ffffff"/>
  <rect x="19" y="21" width="5" height="1.5" rx="0.75" fill="#ffffff"/>
</svg>
